<?xml version="1.0" encoding="UTF-8"?>
<svg id="_图层_2" data-name="图层 2" xmlns="http://www.w3.org/2000/svg" viewBox="0 0 185.41 69.92">
  <defs>
    <style>
      .cls-1 {
        fill: #4a4a4a;
      }
    </style>
  </defs>
  <g id="Layer_1" data-name="Layer 1">
    <g>
      <g>
        <path class="cls-1" d="M112.19,5.53c.11-1.77-.84-3.67-.96-5.39-.36,.48-.84,1.15-1.37,1.96-.29,.44-.6,.93-.91,1.44-.16,.26-.31,.53-.47,.8-.15,.28-.32,.56-.47,.85-.16,.29-.31,.59-.46,.89-.16,.3-.3,.61-.45,.92-.15,.31-.29,.63-.43,.95-.14,.32-.27,.65-.4,.97-.26,.65-.5,1.31-.71,1.97-.05,.16-.1,.33-.16,.49-.05,.16-.09,.33-.14,.49-.04,.16-.09,.32-.13,.48-.04,.16-.08,.32-.12,.48-.04,.16-.08,.32-.11,.47-.03,.16-.06,.31-.09,.47-.07,.31-.11,.61-.16,.91-.02,.15-.05,.29-.07,.44-.01,.11-.02,.22-.04,.33,.72-.8,1.87-1.46,2.61-1.88,1.47-.83,2.74-1.78,3.66-3.26,.85-1.36,1.27-3.23,1.37-4.8Z"/>
        <path class="cls-1" d="M103.83,15.43c.02-.14,.04-.29,.06-.44,.02-.15,.06-.3,.08-.45,.06-.3,.11-.61,.19-.93,.04-.16,.07-.32,.11-.48,.04-.16,.09-.32,.13-.48,.04-.16,.09-.32,.14-.49,.05-.16,.1-.32,.15-.49,.05-.16,.1-.33,.16-.49,.06-.16,.12-.33,.17-.49,.23-.66,.5-1.32,.78-1.97,.14-.32,.29-.65,.44-.97,.16-.32,.31-.64,.47-.94,.16-.31,.32-.62,.49-.92,.16-.3,.33-.59,.5-.88,.16-.29,.34-.56,.5-.84,.17-.27,.33-.54,.5-.79,.33-.51,.65-.99,.96-1.42,.57-.81,1.09-1.47,1.47-1.95,0,0,0-.02,0-.03-1.18,.88-2.73,.51-4.06,1.23-1.6,.87-2.69,2.34-3.31,4.06-.62,1.69-.85,3.61-.66,5.41,.16,1.56,.59,3.28,.69,4.93,.01-.07,.02-.14,.03-.21Z"/>
        <path class="cls-1" d="M105.14,19.12c-.02-.3-.06-.67-.08-1.09,0-.21-.01-.44-.02-.67,0-.24,0-.49,.01-.75,0-.13,0-.26,.01-.4,0-.14,.02-.27,.03-.41,.01-.14,.02-.28,.03-.43,.01-.14,.03-.29,.05-.44,.02-.15,.04-.3,.05-.45,.02-.15,.05-.31,.07-.46,.02-.16,.05-.31,.08-.47,.02-.16,.06-.32,.09-.48,.03-.16,.06-.32,.1-.49,.04-.16,.08-.32,.12-.49,.04-.16,.08-.33,.12-.49,.05-.16,.09-.33,.14-.5,.18-.66,.4-1.33,.63-1.99,.12-.33,.24-.66,.37-.98,.13-.32,.26-.65,.4-.97,.14-.32,.27-.63,.42-.94,.14-.31,.29-.61,.43-.91,.14-.3,.3-.58,.44-.87,.15-.28,.29-.56,.44-.82,.29-.53,.58-1.02,.86-1.48,.27-.45,.54-.86,.77-1.22,.2-.3,.38-.56,.53-.79v-.06c-.37,.49-.86,1.16-1.41,2-.29,.44-.6,.93-.91,1.45-.16,.26-.31,.53-.47,.81-.15,.28-.32,.56-.47,.86-.16,.29-.32,.59-.47,.9-.16,.3-.31,.62-.45,.93-.15,.31-.29,.64-.44,.96-.14,.33-.28,.65-.41,.98-.26,.66-.5,1.33-.71,2-.05,.17-.1,.33-.16,.5-.05,.17-.09,.33-.14,.5-.05,.17-.09,.33-.13,.49-.04,.17-.08,.33-.12,.49-.04,.16-.08,.32-.11,.48-.03,.16-.06,.32-.09,.48-.03,.16-.07,.31-.09,.47-.02,.16-.05,.31-.07,.46-.02,.15-.05,.3-.07,.45-.02,.15-.03,.3-.05,.44-.02,.14-.03,.29-.05,.42-.01,.14-.02,.28-.03,.41-.01,.27-.04,.53-.04,.77,0,.25,0,.48,0,.7,0,.44,.03,.82,.05,1.14,.07,.63,.1,.99,.1,.99l.77-.12s-.05-.34-.13-.94Z"/>
      </g>
      <g>
        <path class="cls-1" d="M122.88,4.45c.31-1.37-.19-2.97-.07-4.32-.34,.33-.8,.79-1.32,1.35-.28,.31-.58,.65-.89,1.01-.16,.18-.31,.37-.47,.57-.15,.2-.32,.4-.47,.6-.16,.21-.32,.42-.47,.64-.16,.22-.31,.44-.47,.66-.16,.22-.3,.46-.46,.69-.15,.23-.29,.47-.44,.71-.28,.48-.55,.96-.8,1.45-.06,.12-.12,.24-.18,.36-.06,.12-.11,.24-.17,.36-.06,.12-.11,.24-.17,.36-.05,.12-.1,.24-.15,.36-.05,.12-.1,.24-.15,.36-.04,.12-.09,.24-.13,.35-.09,.23-.16,.46-.24,.69-.04,.11-.07,.22-.11,.33-.02,.09-.05,.17-.07,.25,.66-.54,1.64-.9,2.28-1.14,1.25-.46,2.36-1.04,3.27-2.08,.83-.95,1.4-2.36,1.67-3.57Z"/>
        <path class="cls-1" d="M115.11,11.1c.03-.11,.07-.22,.1-.33,.04-.11,.08-.22,.12-.34,.08-.23,.17-.46,.27-.7,.05-.12,.1-.24,.15-.36,.05-.12,.11-.24,.16-.36,.06-.12,.11-.24,.17-.36,.06-.12,.12-.24,.18-.36,.06-.12,.12-.24,.19-.37,.07-.12,.13-.24,.2-.36,.26-.49,.56-.97,.86-1.44,.15-.23,.31-.47,.47-.7,.16-.23,.32-.46,.48-.68,.16-.22,.33-.44,.5-.65,.16-.21,.33-.42,.5-.62,.16-.2,.34-.4,.5-.59,.17-.19,.33-.38,.49-.55,.32-.36,.63-.69,.93-.98,.55-.56,1.03-1.01,1.39-1.33,0,0,0-.01,0-.02-1.03,.54-2.2,.05-3.32,.45-1.36,.48-2.39,1.49-3.1,2.75-.69,1.24-1.12,2.71-1.2,4.14-.07,1.24,.05,2.64-.08,3.93,.02-.05,.03-.11,.05-.16Z"/>
        <path class="cls-1" d="M115.67,14.15c.02-.24,.04-.53,.07-.86,.02-.17,.05-.34,.07-.53,.02-.19,.07-.38,.1-.58,.02-.1,.04-.2,.06-.31,.02-.1,.05-.21,.08-.32,.03-.11,.05-.22,.08-.33,.03-.11,.06-.22,.09-.34,.03-.11,.07-.23,.1-.35,.03-.12,.08-.23,.11-.35,.04-.12,.08-.24,.12-.36,.04-.12,.09-.24,.13-.36,.05-.12,.09-.24,.14-.37,.05-.12,.1-.24,.15-.37,.05-.12,.1-.25,.16-.37,.06-.12,.11-.25,.17-.37,.23-.5,.48-.99,.74-1.47,.13-.24,.27-.48,.41-.72,.15-.23,.28-.47,.43-.7,.15-.23,.29-.46,.44-.68,.15-.22,.3-.44,.45-.65,.15-.21,.3-.42,.45-.62,.15-.2,.3-.4,.45-.58,.3-.38,.58-.73,.85-1.04,.27-.32,.53-.6,.76-.85,.19-.21,.36-.39,.51-.55v-.05c-.34,.33-.81,.8-1.34,1.38-.28,.31-.58,.65-.89,1.02-.16,.18-.31,.38-.47,.57-.16,.2-.32,.4-.48,.61-.16,.21-.32,.42-.48,.64-.16,.22-.32,.44-.47,.67-.16,.23-.31,.46-.46,.69-.15,.24-.3,.47-.44,.71-.28,.48-.56,.97-.81,1.47-.06,.12-.12,.25-.19,.37-.06,.12-.11,.25-.17,.37-.06,.12-.11,.25-.17,.37-.05,.12-.1,.25-.15,.37-.05,.12-.1,.24-.15,.36-.04,.12-.09,.24-.13,.36-.04,.12-.09,.24-.13,.36-.04,.12-.08,.24-.11,.35-.04,.12-.08,.23-.11,.34-.03,.11-.06,.23-.09,.34-.03,.11-.06,.22-.09,.33-.03,.11-.05,.21-.07,.32-.04,.21-.1,.41-.13,.6-.03,.19-.06,.37-.09,.54-.05,.34-.08,.64-.11,.89-.03,.5-.04,.78-.04,.78h.61s0-.27,.02-.74Z"/>
      </g>
      <g>
        <path class="cls-1" d="M119.56,25.46c1.2,.3,2.63-.13,3.83,0-.29-.31-.69-.72-1.18-1.19-.27-.25-.56-.52-.88-.8-.16-.14-.33-.28-.49-.42-.17-.14-.35-.29-.53-.43-.18-.14-.36-.29-.56-.43-.19-.14-.38-.28-.58-.42-.19-.14-.4-.28-.6-.41-.2-.13-.41-.27-.62-.4-.42-.26-.84-.5-1.27-.73-.11-.06-.21-.11-.32-.17-.11-.05-.21-.1-.32-.16-.11-.05-.21-.1-.32-.15-.11-.05-.21-.09-.32-.14-.11-.04-.21-.09-.31-.13-.1-.04-.21-.08-.31-.12-.2-.08-.41-.15-.6-.22-.1-.03-.2-.07-.29-.1-.08-.02-.15-.04-.22-.07,.46,.59,.77,1.47,.97,2.03,.39,1.11,.88,2.1,1.79,2.92,.83,.75,2.06,1.27,3.13,1.53Z"/>
        <path class="cls-1" d="M113.79,18.49c.1,.03,.19,.06,.29,.1,.1,.03,.2,.07,.3,.11,.2,.08,.41,.15,.61,.25,.1,.04,.21,.09,.31,.14,.11,.05,.21,.1,.31,.15,.11,.05,.21,.1,.32,.15,.11,.05,.21,.11,.32,.17,.11,.06,.21,.11,.32,.17,.11,.06,.21,.12,.32,.18,.43,.24,.85,.51,1.26,.78,.21,.14,.41,.28,.61,.42,.2,.15,.4,.29,.59,.44,.19,.15,.39,.3,.57,.45,.19,.15,.37,.3,.54,.45,.18,.15,.35,.3,.52,.45,.16,.15,.33,.3,.48,.44,.31,.29,.6,.57,.86,.84,.49,.49,.88,.93,1.16,1.25,0,0,.01,0,.02,0-.46-.92-.01-1.94-.35-2.95-.4-1.21-1.28-2.14-2.39-2.78-1.09-.63-2.38-1.03-3.64-1.12-1.1-.08-2.33,0-3.47-.13,.05,.02,.09,.03,.14,.05Z"/>
        <path class="cls-1" d="M111.09,18.94c.21,.02,.47,.04,.76,.08,.15,.02,.3,.05,.46,.07,.16,.02,.33,.07,.51,.1,.09,.02,.18,.03,.27,.06,.09,.02,.19,.05,.28,.07,.1,.02,.19,.05,.29,.07,.1,.03,.2,.06,.3,.09,.1,.03,.2,.06,.3,.09,.1,.03,.2,.07,.31,.1,.1,.04,.21,.07,.31,.11,.11,.04,.21,.08,.32,.12,.11,.04,.21,.08,.32,.13,.11,.04,.21,.09,.32,.14,.11,.05,.22,.1,.33,.14,.11,.05,.22,.1,.32,.16,.43,.21,.87,.44,1.29,.68,.21,.12,.42,.25,.63,.38,.21,.13,.42,.26,.61,.39,.2,.13,.4,.27,.59,.4,.2,.13,.38,.27,.57,.41,.19,.14,.36,.28,.54,.41,.17,.14,.35,.27,.51,.41,.33,.27,.63,.53,.91,.77,.28,.24,.53,.47,.74,.68,.18,.17,.34,.33,.47,.46h.04c-.29-.31-.7-.73-1.2-1.21-.27-.25-.57-.53-.89-.81-.16-.14-.33-.28-.5-.42-.17-.14-.35-.29-.53-.43-.18-.14-.37-.29-.56-.43-.19-.15-.39-.29-.59-.43-.2-.14-.4-.28-.61-.42-.21-.14-.42-.27-.63-.4-.42-.26-.85-.51-1.29-.74-.11-.06-.22-.11-.32-.17-.11-.05-.22-.11-.33-.16-.11-.05-.22-.1-.32-.15-.11-.05-.22-.09-.32-.14-.11-.05-.21-.09-.32-.14-.11-.04-.21-.08-.32-.12-.11-.04-.21-.08-.31-.12-.1-.04-.21-.07-.31-.11-.1-.03-.2-.07-.3-.1-.1-.03-.2-.06-.3-.09-.1-.03-.19-.06-.29-.08-.09-.03-.19-.05-.28-.07-.18-.04-.36-.09-.53-.12-.17-.03-.33-.06-.48-.09-.3-.05-.57-.08-.79-.11-.44-.03-.69-.05-.69-.05v.54s.23,0,.65,.03Z"/>
      </g>
      <g>
        <path class="cls-1" d="M134.77,53.49c1-.73,1.6-2.09,2.47-2.92-.42,.02-.99,.06-1.66,.14-.37,.04-.76,.09-1.18,.16-.21,.03-.42,.07-.64,.11-.22,.04-.44,.08-.67,.13-.23,.05-.46,.09-.69,.15-.23,.05-.46,.11-.7,.17-.23,.06-.47,.13-.7,.19-.23,.07-.47,.14-.7,.22-.47,.15-.93,.32-1.37,.5-.11,.05-.22,.09-.33,.14-.11,.05-.22,.1-.32,.14-.11,.05-.21,.1-.32,.14-.1,.05-.21,.1-.31,.15-.1,.05-.21,.1-.3,.15-.1,.05-.2,.11-.29,.16-.2,.1-.38,.21-.56,.32-.09,.05-.18,.11-.26,.16-.07,.04-.13,.09-.19,.13,.75,.03,1.62,.35,2.18,.56,1.1,.42,2.18,.68,3.39,.51,1.11-.15,2.3-.76,3.19-1.4Z"/>
        <path class="cls-1" d="M125.72,53.42c.09-.05,.17-.11,.26-.16,.09-.05,.18-.1,.28-.15,.19-.1,.38-.21,.58-.31,.1-.05,.2-.1,.31-.15,.1-.05,.21-.1,.32-.14,.11-.05,.21-.1,.32-.14,.11-.05,.22-.09,.33-.14,.11-.05,.22-.09,.34-.14,.11-.04,.23-.08,.34-.13,.46-.17,.93-.32,1.41-.46,.24-.07,.48-.13,.72-.19,.24-.06,.48-.12,.72-.17,.24-.05,.47-.1,.71-.15,.23-.05,.47-.09,.7-.13,.23-.04,.45-.07,.67-.1,.22-.03,.44-.06,.65-.08,.42-.05,.82-.09,1.19-.12,.69-.05,1.28-.07,1.7-.08,0,0,0,0,.01-.01-1-.24-1.5-1.24-2.48-1.63-1.18-.47-2.46-.4-3.66,.03-1.19,.43-2.32,1.16-3.2,2.06-.77,.79-1.5,1.79-2.34,2.57,.04-.03,.09-.05,.13-.08Z"/>
        <path class="cls-1" d="M124.33,55.77c.15-.15,.33-.33,.55-.53,.11-.1,.23-.2,.35-.31,.12-.11,.26-.21,.41-.33,.07-.06,.14-.12,.22-.17,.08-.06,.16-.11,.24-.17,.08-.06,.16-.12,.24-.17,.08-.06,.17-.11,.26-.17,.09-.06,.18-.11,.27-.17,.09-.06,.19-.11,.28-.17,.09-.06,.19-.11,.29-.17,.1-.06,.2-.11,.3-.16,.1-.05,.2-.11,.3-.16,.1-.05,.21-.1,.31-.16,.11-.05,.21-.1,.32-.16,.11-.05,.22-.1,.33-.15,.44-.2,.89-.38,1.35-.55,.23-.08,.46-.16,.69-.24,.23-.07,.46-.15,.7-.22,.23-.07,.46-.14,.69-.19,.23-.06,.46-.12,.68-.17,.22-.06,.45-.1,.66-.15,.22-.04,.43-.09,.64-.13,.42-.08,.81-.14,1.18-.2,.37-.05,.7-.1,1-.13,.25-.03,.47-.05,.66-.06l.03-.03c-.43,.02-1.01,.06-1.7,.14-.37,.04-.77,.09-1.19,.16-.21,.03-.42,.07-.65,.11-.22,.04-.44,.08-.67,.13-.23,.05-.46,.09-.69,.15-.23,.05-.47,.11-.7,.17-.24,.06-.47,.13-.71,.2-.24,.07-.47,.14-.71,.22-.47,.16-.94,.32-1.39,.51-.11,.05-.23,.09-.34,.14-.11,.05-.22,.1-.33,.15-.11,.05-.22,.1-.33,.15-.11,.05-.21,.11-.32,.16-.1,.05-.21,.1-.31,.16-.1,.06-.2,.11-.3,.16-.1,.06-.2,.11-.29,.16-.09,.06-.19,.11-.28,.17-.09,.06-.18,.11-.27,.17-.09,.06-.17,.11-.26,.17-.08,.06-.17,.11-.25,.17-.08,.05-.16,.11-.23,.17-.15,.11-.3,.21-.43,.32-.13,.11-.26,.21-.38,.31-.23,.2-.43,.38-.59,.53-.31,.32-.48,.5-.48,.5l.41,.36s.16-.18,.45-.49Z"/>
      </g>
      <g>
        <path class="cls-1" d="M132.71,65.61c.64,1.06,.65,2.55,1.13,3.65-.38-.18-.89-.44-1.48-.78-.32-.18-.67-.38-1.03-.61-.18-.11-.36-.23-.55-.35-.18-.12-.38-.25-.56-.38-.19-.13-.38-.26-.57-.4-.19-.14-.38-.28-.58-.43-.19-.14-.38-.3-.57-.45-.19-.16-.38-.31-.56-.47-.37-.32-.73-.65-1.07-1-.08-.09-.17-.17-.25-.26-.08-.09-.16-.17-.24-.26-.08-.09-.16-.17-.24-.26-.08-.09-.15-.18-.23-.26-.07-.09-.15-.17-.22-.26-.07-.09-.14-.17-.21-.26-.14-.17-.27-.34-.39-.51-.06-.08-.12-.17-.18-.25-.04-.07-.09-.13-.13-.19,.71,.27,1.63,.31,2.23,.33,1.18,.05,2.27,.23,3.32,.85,.96,.57,1.82,1.6,2.39,2.54Z"/>
        <path class="cls-1" d="M124.35,62.15c.06,.08,.12,.17,.18,.25,.06,.08,.13,.17,.2,.25,.13,.17,.27,.34,.42,.51,.07,.09,.15,.17,.22,.26,.07,.09,.16,.17,.23,.26,.08,.09,.16,.17,.24,.26,.08,.09,.17,.17,.25,.25,.08,.08,.17,.17,.26,.26,.09,.08,.18,.17,.27,.25,.36,.34,.73,.66,1.12,.97,.19,.16,.39,.31,.58,.46,.2,.15,.39,.3,.59,.44,.2,.14,.4,.28,.6,.41,.2,.13,.4,.26,.59,.39,.19,.13,.39,.24,.58,.36,.19,.11,.38,.23,.56,.33,.37,.21,.72,.4,1.05,.57,.62,.32,1.15,.56,1.54,.74,0,0,0,.01,0,.02-1.01-.17-1.86,.56-2.92,.54-1.27-.03-2.42-.59-3.36-1.46-.93-.85-1.68-1.97-2.14-3.15-.4-1.02-.68-2.23-1.15-3.28,.03,.04,.06,.08,.09,.12Z"/>
        <path class="cls-1" d="M123.99,59.43c.08,.19,.18,.43,.3,.7,.06,.13,.13,.27,.2,.42,.07,.15,.16,.3,.25,.46,.04,.08,.09,.16,.14,.24,.05,.08,.1,.16,.15,.25,.05,.08,.1,.17,.16,.26,.05,.09,.11,.17,.17,.26,.06,.09,.12,.17,.18,.26,.06,.09,.13,.17,.19,.26,.07,.09,.13,.18,.2,.27,.07,.09,.14,.18,.21,.27,.07,.09,.14,.18,.22,.27,.07,.09,.15,.18,.23,.27,.08,.09,.15,.18,.23,.27,.08,.09,.16,.18,.24,.26,.33,.35,.68,.7,1.03,1.04,.18,.17,.36,.33,.54,.49,.19,.16,.37,.32,.56,.47,.19,.15,.37,.31,.56,.45,.19,.15,.37,.29,.56,.42,.18,.14,.37,.27,.55,.4,.18,.13,.36,.25,.54,.37,.35,.23,.69,.45,1.01,.64,.32,.19,.61,.36,.87,.51,.22,.12,.41,.23,.58,.32l.02,.04c-.38-.19-.91-.45-1.51-.79-.32-.18-.67-.39-1.03-.61-.18-.11-.36-.23-.55-.35-.19-.12-.38-.25-.57-.38-.19-.13-.39-.27-.58-.41-.19-.14-.39-.29-.58-.43-.2-.15-.38-.3-.58-.46-.19-.16-.38-.32-.57-.48-.37-.33-.74-.66-1.08-1.01-.09-.09-.17-.17-.26-.26-.08-.09-.16-.18-.25-.27-.08-.09-.16-.18-.24-.26-.08-.09-.15-.18-.23-.27-.08-.09-.15-.18-.22-.27-.07-.09-.14-.18-.21-.27-.07-.09-.14-.17-.21-.26-.06-.09-.13-.18-.19-.26-.06-.09-.13-.17-.19-.26-.06-.09-.11-.17-.17-.26-.06-.08-.11-.17-.16-.25-.05-.08-.1-.17-.15-.25-.09-.16-.19-.31-.27-.47-.08-.15-.16-.3-.23-.43-.14-.27-.24-.52-.34-.72-.16-.41-.25-.65-.25-.65l.51-.17s.08,.23,.22,.63Z"/>
      </g>
      <g>
        <path class="cls-1" d="M140.34,63.5c.48,.79,.49,1.9,.85,2.73-.28-.14-.67-.33-1.1-.58-.24-.14-.5-.29-.77-.45-.13-.08-.27-.17-.41-.26-.14-.09-.28-.18-.42-.28-.14-.1-.29-.2-.43-.3-.14-.1-.29-.21-.43-.32-.14-.11-.28-.22-.43-.34-.14-.12-.28-.23-.42-.35-.27-.24-.55-.49-.8-.74-.06-.06-.13-.13-.19-.19-.06-.07-.12-.13-.18-.19-.06-.06-.12-.13-.18-.19-.06-.07-.11-.13-.17-.2-.06-.07-.11-.13-.16-.19-.05-.07-.1-.13-.16-.19-.1-.13-.2-.26-.29-.38-.05-.06-.09-.12-.14-.19-.03-.05-.06-.1-.1-.14,.53,.2,1.22,.23,1.66,.25,.88,.03,1.69,.17,2.48,.63,.72,.43,1.36,1.19,1.78,1.89Z"/>
        <path class="cls-1" d="M134.1,60.91c.04,.06,.09,.12,.13,.19,.05,.06,.1,.12,.15,.19,.1,.13,.2,.26,.31,.38,.05,.06,.11,.13,.17,.19,.06,.07,.12,.13,.17,.19,.06,.06,.12,.13,.18,.19,.06,.06,.12,.13,.19,.19,.06,.06,.13,.13,.19,.19,.07,.06,.13,.12,.2,.19,.27,.25,.55,.49,.83,.73,.14,.12,.29,.23,.44,.34,.15,.11,.29,.22,.44,.33,.15,.11,.3,.21,.44,.31,.15,.1,.3,.2,.44,.29,.15,.09,.29,.18,.43,.27,.14,.08,.28,.17,.42,.25,.28,.16,.54,.3,.78,.43,.46,.24,.86,.42,1.15,.55,0,0,0,0,0,.01-.76-.13-1.39,.42-2.18,.4-.95-.02-1.81-.44-2.51-1.09-.69-.64-1.26-1.47-1.6-2.35-.3-.76-.51-1.66-.86-2.45,.02,.03,.04,.06,.07,.09Z"/>
        <path class="cls-1" d="M133.83,58.89c.06,.14,.13,.32,.22,.52,.05,.1,.1,.2,.15,.32,.05,.11,.12,.22,.18,.34,.03,.06,.06,.12,.1,.18,.04,.06,.07,.12,.11,.18,.04,.06,.08,.13,.12,.19,.04,.06,.08,.13,.13,.19,.04,.06,.09,.13,.13,.2,.04,.07,.09,.13,.14,.2,.05,.07,.1,.13,.15,.2,.05,.07,.1,.13,.16,.2,.05,.07,.11,.13,.16,.2,.06,.07,.11,.13,.17,.2,.06,.07,.12,.13,.17,.2,.06,.07,.12,.13,.18,.2,.24,.26,.5,.52,.77,.77,.13,.12,.27,.25,.41,.37,.14,.12,.27,.24,.42,.35,.14,.11,.28,.23,.42,.34,.14,.11,.28,.21,.42,.32,.14,.1,.28,.2,.41,.3,.14,.09,.27,.19,.4,.27,.26,.18,.51,.34,.75,.48,.24,.14,.45,.27,.65,.38,.16,.09,.31,.17,.43,.24v.03c-.28-.14-.66-.33-1.12-.59-.24-.14-.5-.29-.77-.45-.14-.08-.27-.17-.41-.26-.14-.09-.28-.18-.42-.28-.14-.1-.29-.2-.43-.3-.15-.1-.29-.21-.43-.32-.15-.11-.29-.23-.43-.34-.14-.12-.28-.24-.42-.36-.28-.25-.55-.5-.81-.76-.06-.07-.13-.13-.19-.19-.06-.07-.12-.13-.18-.2-.06-.07-.12-.13-.18-.2-.06-.07-.11-.13-.17-.2-.06-.07-.11-.13-.17-.2-.05-.07-.11-.13-.16-.2-.05-.07-.11-.13-.15-.2-.05-.07-.1-.13-.14-.2-.05-.07-.09-.13-.14-.19-.04-.07-.09-.13-.13-.19-.04-.06-.08-.13-.12-.19-.04-.06-.07-.12-.11-.18-.07-.12-.14-.23-.2-.35-.06-.11-.12-.22-.17-.32-.1-.2-.18-.39-.25-.54-.12-.31-.19-.48-.19-.48l.38-.13s.06,.17,.16,.47Z"/>
      </g>
      <g>
        <path class="cls-1" d="M143.92,57.33c.95-.45,1.66-1.48,2.51-2.03-.35-.05-.83-.11-1.4-.15-.31-.02-.65-.04-1.01-.06-.18,0-.36,0-.55-.01-.19,0-.38,0-.57,0-.19,0-.39,0-.59,.01-.2,0-.4,.02-.61,.03-.2,.01-.41,.03-.61,.05-.21,.02-.41,.04-.62,.07-.41,.05-.82,.12-1.22,.2-.1,.02-.2,.04-.3,.06-.1,.02-.2,.05-.29,.07-.1,.02-.19,.04-.29,.07-.09,.03-.19,.05-.28,.08-.09,.03-.19,.05-.28,.08-.09,.03-.18,.06-.27,.09-.18,.05-.35,.12-.51,.18-.08,.03-.17,.06-.24,.09-.06,.03-.12,.05-.18,.08,.62,.14,1.29,.55,1.72,.81,.85,.52,1.7,.91,2.73,.96,.95,.05,2.03-.26,2.87-.66Z"/>
        <path class="cls-1" d="M136.43,55.83c.08-.03,.16-.06,.24-.09,.08-.03,.17-.06,.25-.08,.17-.06,.35-.12,.53-.16,.09-.03,.18-.05,.28-.08,.09-.03,.19-.05,.28-.07,.1-.02,.19-.05,.29-.07,.1-.02,.2-.04,.3-.06,.1-.02,.2-.04,.3-.06,.1-.02,.2-.03,.3-.05,.41-.07,.82-.12,1.24-.16,.21-.02,.42-.03,.63-.05,.21,0,.42-.02,.62-.03,.21,0,.41-.01,.61,0,.2,0,.4,0,.6,0,.2,0,.39,.01,.58,.02,.19,.01,.37,.02,.55,.03,.36,.03,.7,.06,1.01,.09,.58,.06,1.07,.14,1.42,.2,0,0,0,0,.01,0-.79-.36-1.04-1.27-1.8-1.75-.91-.58-1.98-.72-3.04-.55-1.05,.16-2.11,.59-2.98,1.2-.76,.53-1.53,1.24-2.35,1.76,.04-.01,.08-.03,.12-.04Z"/>
        <path class="cls-1" d="M134.9,57.56c.15-.1,.33-.22,.54-.35,.11-.06,.22-.13,.34-.2,.12-.07,.25-.13,.39-.21,.07-.03,.14-.07,.21-.11,.07-.03,.15-.07,.22-.1s.15-.07,.23-.11c.08-.03,.16-.07,.24-.1,.08-.03,.16-.07,.25-.1,.08-.03,.17-.06,.26-.1,.09-.03,.18-.06,.26-.1,.09-.03,.18-.06,.27-.09,.09-.03,.19-.06,.28-.09,.09-.03,.19-.05,.29-.08,.1-.03,.19-.05,.29-.08,.1-.02,.2-.05,.3-.07,.4-.1,.8-.17,1.21-.24,.2-.03,.41-.06,.61-.09,.21-.02,.41-.05,.61-.07,.2-.02,.4-.04,.6-.05,.2-.02,.4-.03,.59-.03,.19-.01,.39-.01,.57-.02,.19,0,.37,0,.55,0,.36,0,.69,0,1.01,.02,.31,.01,.6,.03,.85,.05,.21,.02,.4,.03,.56,.05l.03-.02c-.36-.05-.85-.11-1.43-.15-.31-.02-.65-.04-1.01-.06-.18,0-.36,0-.55-.01-.19,0-.38,0-.58,0-.2,0-.4,0-.6,.01-.2,0-.41,.02-.61,.03-.21,.01-.41,.03-.62,.05-.21,.02-.42,.04-.62,.07-.42,.06-.83,.12-1.24,.2-.1,.02-.2,.04-.3,.06-.1,.02-.2,.05-.3,.07-.1,.02-.2,.05-.29,.07-.1,.03-.19,.05-.29,.08-.09,.03-.19,.05-.28,.08-.09,.03-.18,.06-.27,.09-.09,.03-.18,.06-.27,.09-.09,.03-.17,.06-.26,.1-.08,.03-.17,.06-.25,.09-.08,.03-.16,.07-.24,.1-.08,.03-.16,.07-.23,.1-.08,.03-.15,.07-.22,.1-.14,.07-.28,.13-.41,.2-.13,.07-.25,.13-.36,.2-.22,.13-.41,.25-.57,.35-.31,.21-.48,.33-.48,.33l.28,.36s.16-.12,.45-.34Z"/>
      </g>
      <g>
        <path class="cls-1" d="M126.93,18.68c1.05,.26,2.3-.12,3.35-.01-.25-.27-.6-.63-1.03-1.03-.24-.22-.5-.46-.77-.7-.14-.12-.29-.24-.43-.37-.15-.12-.3-.25-.46-.37-.16-.12-.32-.25-.49-.37-.17-.13-.34-.25-.51-.37-.17-.12-.35-.24-.53-.36-.18-.12-.36-.23-.54-.35-.37-.22-.74-.44-1.11-.63-.09-.05-.19-.1-.28-.15-.09-.05-.19-.09-.28-.13-.09-.04-.19-.09-.28-.13-.09-.04-.19-.08-.28-.12-.09-.04-.18-.08-.27-.12-.09-.04-.18-.07-.27-.11-.18-.07-.36-.13-.53-.19-.09-.03-.17-.06-.26-.09-.07-.02-.13-.04-.2-.06,.41,.52,.68,1.28,.86,1.77,.35,.97,.78,1.84,1.58,2.55,.73,.65,1.81,1.1,2.74,1.33Z"/>
        <path class="cls-1" d="M121.85,12.6c.08,.03,.17,.06,.26,.08,.09,.03,.17,.06,.26,.1,.18,.07,.36,.13,.54,.21,.09,.04,.18,.08,.27,.12,.09,.04,.18,.09,.28,.13,.09,.04,.19,.09,.28,.13,.09,.05,.19,.1,.28,.14,.09,.05,.19,.1,.28,.15,.09,.05,.19,.1,.28,.16,.37,.21,.74,.44,1.11,.68,.18,.12,.36,.24,.54,.37,.17,.13,.35,.25,.52,.38,.17,.13,.34,.26,.5,.39,.16,.13,.32,.26,.48,.39,.16,.13,.3,.26,.45,.39,.14,.13,.29,.26,.42,.39,.27,.25,.52,.5,.75,.73,.43,.43,.77,.81,1.02,1.09,0,0,.01,0,.02,0-.41-.8-.02-1.7-.32-2.58-.36-1.06-1.13-1.87-2.1-2.42-.96-.55-2.08-.89-3.19-.97-.96-.07-2.04,.01-3.04-.1,.04,.01,.08,.03,.13,.04Z"/>
        <path class="cls-1" d="M119.49,13.01c.18,.02,.41,.03,.66,.06,.13,.02,.26,.04,.41,.06,.14,.02,.29,.06,.45,.08,.08,.02,.16,.03,.24,.05,.08,.02,.16,.04,.25,.06,.08,.02,.17,.04,.25,.06,.09,.02,.17,.05,.26,.08,.09,.03,.18,.05,.27,.08,.09,.03,.18,.06,.27,.09,.09,.03,.18,.06,.28,.1,.09,.03,.18,.07,.28,.11,.09,.04,.19,.07,.28,.11,.09,.04,.19,.08,.28,.12,.09,.04,.19,.08,.29,.12,.09,.04,.19,.09,.28,.13,.38,.18,.76,.38,1.13,.59,.19,.11,.37,.22,.55,.33,.18,.11,.36,.22,.54,.34,.18,.12,.35,.23,.52,.35,.17,.12,.34,.24,.5,.36,.16,.12,.32,.24,.48,.36,.15,.12,.3,.24,.45,.35,.29,.23,.56,.46,.8,.67,.24,.21,.46,.41,.65,.59,.16,.15,.3,.28,.42,.4h.04c-.26-.27-.61-.64-1.06-1.05-.24-.22-.5-.46-.78-.7-.14-.12-.29-.24-.44-.37-.15-.12-.31-.25-.47-.37-.16-.12-.32-.25-.49-.38-.17-.13-.34-.25-.51-.37-.17-.13-.35-.24-.53-.36-.18-.12-.36-.23-.55-.35-.37-.22-.75-.44-1.13-.64-.1-.05-.19-.1-.28-.15-.1-.05-.19-.09-.29-.14-.1-.04-.19-.09-.28-.13-.1-.04-.19-.08-.28-.12-.09-.04-.19-.08-.28-.12-.09-.04-.19-.07-.28-.11-.09-.03-.18-.07-.27-.1-.09-.03-.18-.06-.27-.09-.09-.03-.18-.06-.26-.09-.09-.03-.17-.05-.26-.07-.09-.02-.17-.05-.25-.07-.08-.02-.16-.04-.24-.06-.16-.04-.31-.08-.46-.1-.15-.03-.29-.05-.42-.08-.26-.04-.5-.07-.69-.09-.39-.03-.61-.04-.61-.04v.48s.2,0,.57,.02Z"/>
      </g>
      <path class="cls-1" d="M154.02,35.37c-23.74-1.32-51.48,5.44-74.95-.2-7.2-1.73-10.33-5.62-17.13-6.54-5.96-.81-14.56,3.45-20.73,3.98C28.27,33.74,12.02,25.73,.02,29.81c-.03,1.89-.02,3.79,0,5.69h-.01l-.02,14.09c.66-6.59,10.91-6.07,13.65-5.82,7.94,.87,15.67,1.84,24.26,.44,6.57-1.07,13.91-5.17,20.51-5.17,6.26,0,11.98,3.93,18.14,4.91,25.74,4.1,51.94-6.28,77.47-5.08-.08-.69-.07-2.82,0-3.5Z"/>
      <path class="cls-1" d="M78.44,35.59s.06,.03,.17,.08c.03,.01,.06,.03,.09,.04,.02,.01,.12,.05,.03,.01-.1-.04-.23-.08-.38-.09-.22,0-.13,.1,.33,.01,.45-.08,1.23-.35,2.16-.84,.93-.48,2.01-1.15,3.16-1.98,1.15-.82,2.39-1.81,3.61-2.9,.3-.27,.61-.55,.89-.83l.21-.2,.03-.03h.01s.13-.17-.11,.12l.06-.07,.11-.13,.44-.53c.23-.32,.31-.43,.52-.76,.2-.36,.4-.69,.61-1.12,.41-.79,.87-1.76,1.45-2.75,.32-.51,.63-1.02,1.07-1.54l.31-.38,.08-.09,.11-.11,.13-.13,.53-.54c.22-.21,.55-.5,.83-.73,.14-.12,.47-.32,.71-.44,.13-.07,.27-.13,.4-.19,.17-.05,.36-.09,.54-.13,.37-.07,.78-.08,.95-.04,.21,.03,.48,.07,.64,.1,.23,.06,.51,.14,.71,.18,.4,.1,.82,.17,1.26,.21l.32,.04h.02c-.3,.01-.07,0-.13,0h.05s.1,0,.1,0h.19s.77,0,.77,0h.77s.38,0,.38,0l.31-.05,1.24-.18c.42-.06,.88-.24,1.32-.35,.45-.11,.89-.25,1.32-.45,1.75-.63,3.4-1.65,5.01-2.62,1.6-1.06,3.15-2.08,4.62-3.05,.73-.5,1.5-.94,2.21-1.38,.74-.42,1.46-.8,2.16-1.16,.74-.3,1.41-.64,2.1-.87,.7-.19,1.34-.44,1.97-.55,.63-.1,1.22-.19,1.77-.27,.55,0,1.06,0,1.51,.01,.23,0,.44,0,.64,.01,.2,.04,.39,.07,.56,.1,.35,.06,.64,.11,.88,.16,.47,.08,.73,.13,.73,.13,0,0-.26-.01-.74-.04-.24-.01-.53-.03-.88-.05-.17,0-.36-.02-.55-.03-.2,0-.41,.04-.63,.06-.44,.05-.92,.1-1.45,.16-.51,.14-1.06,.29-1.65,.46-.58,.17-1.16,.48-1.79,.74-.62,.28-1.22,.69-1.87,1.05-.62,.42-1.27,.87-1.92,1.35-.64,.52-1.31,1.01-1.97,1.59-1.35,1.14-2.78,2.35-4.25,3.59-1.55,1.21-3.17,2.5-5.12,3.49-.46,.28-.97,.51-1.49,.71-.52,.2-1.01,.46-1.58,.62l-1.75,.46-.44,.11-.38,.05-.76,.09-.76,.09-.19,.02h-.1s-.05,.02-.05,.02h-.2s-.44,0-.44,0c-.59,.01-1.19-.01-1.79-.09-.31-.03-.53-.07-.79-.1-.09,0-.08,.01-.12,0-.09-.02,.07,.03,.2,0,.06,0,.12-.04,.17-.06,.03,0,.05,0,.08,0,.03,.01,.13-.09,.08-.03-.08,.12-.13,.17-.26,.32l-.47,.59-.12,.15s-.08,.09-.02,.03l-.03,.06-.13,.22c-.18,.26-.35,.63-.51,.98-.33,.76-.62,1.61-.98,2.58-.16,.46-.39,.97-.59,1.47-.22,.5-.61,1.21-.89,1.66l-.38,.58-.09,.14-.05,.07-.18,.23-.24,.31c-.32,.4-.63,.76-.95,1.12-1.25,1.42-2.49,2.67-3.72,3.79-1.23,1.12-2.43,2.1-3.64,2.92-1.2,.82-2.41,1.49-3.67,1.93-1.25,.44-2.6,.63-3.77,.45-.38-.06-.71-.15-.99-.23-.12-.04-.23-.07-.31-.1-.12-.04-.18-.06-.18-.06l2.85-7.23Z"/>
      <path class="cls-1" d="M110.58,38.41s.14,.12,.41,.35c.29,.26,.59,.47,1.29,1.18,.31,.31,.7,.69,1.01,1.06,.29,.35,.6,.74,.93,1.15,.62,.82,1.27,1.75,1.9,2.74,1.28,1.98,2.55,4.28,4.01,6.47,.74,1.07,1.51,2.15,2.38,3.04,.87,.86,1.81,1.61,2.84,1.97,.26,.09,.53,.12,.8,.19l.2,.05h.05s.03,.02,.03,.02h.01s-.12,0-.05,0h.14s.56,.04,.56,.04c.79,.06,1.36,.03,2.09,.03,1.43-.04,3-.15,4.54,.06,1.53,.2,3.03,.7,4.18,1.35,1.28,.73,2.19,1.54,3.06,2.27,.85,.73,1.62,1.37,2.38,1.79,.75,.43,1.5,.6,2.14,.62,.32,.02,.6,0,.85-.05,.25-.02,.46-.07,.63-.13,.34-.09,.52-.14,.52-.14,0,0-.17,.08-.49,.22-.16,.08-.36,.17-.61,.23-.25,.08-.54,.16-.88,.19-.67,.09-1.54,.04-2.44-.3-.91-.32-1.83-.88-2.8-1.46-.95-.58-2.01-1.21-3.05-1.6-1.17-.43-2.35-.59-3.61-.56-1.26,.03-2.57,.33-4.07,.62-.74,.13-1.65,.29-2.34,.35l-.56,.06-.14,.02h-.24s-.35-.02-.35-.02c-.47-.03-.96-.03-1.42-.1-1.91-.32-3.54-1.25-4.93-2.23-1.39-1.01-2.5-2.14-3.55-3.23-2.04-2.2-3.66-4.26-5.1-5.85-.71-.8-1.37-1.46-1.95-2.02-.29-.26-.56-.5-.81-.72-.24-.2-.41-.29-.57-.42-.23-.21-.82-.54-1.08-.71-.3-.18-.46-.28-.46-.28h-.02c-1.84-1.14-2.41-3.54-1.28-5.38,1.13-1.84,3.53-2.41,5.36-1.28,.18,.11,.36,.24,.51,.37Z"/>
      <g>
        <path class="cls-1" d="M62.27,60.87c.64,1.06,.65,2.55,1.13,3.65-.38-.18-.89-.44-1.48-.78-.32-.18-.67-.38-1.03-.61-.18-.11-.36-.23-.55-.35-.18-.12-.38-.25-.56-.38-.19-.13-.38-.26-.57-.4-.19-.14-.38-.28-.58-.43-.19-.14-.38-.3-.57-.45-.19-.16-.38-.31-.56-.47-.37-.32-.73-.65-1.07-1-.08-.09-.17-.17-.25-.25-.08-.09-.16-.17-.24-.26-.08-.09-.16-.17-.24-.26-.08-.09-.15-.18-.23-.26-.07-.09-.15-.17-.22-.26-.07-.09-.14-.17-.21-.26-.14-.17-.27-.34-.39-.51-.06-.08-.12-.17-.18-.25-.04-.07-.09-.13-.13-.19,.71,.27,1.63,.31,2.23,.33,1.18,.05,2.27,.23,3.32,.85,.96,.57,1.82,1.6,2.39,2.54Z"/>
        <path class="cls-1" d="M53.92,57.41c.06,.08,.12,.17,.18,.25,.06,.08,.13,.17,.2,.25,.13,.17,.27,.34,.42,.51,.07,.09,.15,.17,.22,.26,.07,.09,.16,.17,.23,.26,.08,.09,.16,.17,.24,.26,.08,.09,.17,.17,.25,.25,.08,.08,.17,.17,.26,.26,.09,.08,.18,.17,.27,.25,.36,.34,.73,.66,1.12,.97,.19,.16,.39,.31,.58,.46,.2,.15,.39,.3,.59,.44,.2,.14,.4,.28,.6,.41,.2,.13,.4,.26,.59,.39,.19,.13,.39,.24,.58,.36,.19,.11,.38,.23,.56,.33,.37,.21,.72,.4,1.05,.57,.62,.32,1.15,.56,1.54,.74,0,0,0,.01,0,.02-1.01-.17-1.86,.56-2.92,.54-1.27-.03-2.42-.59-3.36-1.46-.93-.85-1.68-1.97-2.14-3.15-.4-1.02-.68-2.23-1.15-3.28,.03,.04,.06,.08,.09,.12Z"/>
        <path class="cls-1" d="M53.55,54.7c.08,.19,.18,.43,.3,.7,.06,.13,.13,.27,.2,.42,.07,.15,.16,.3,.25,.46,.04,.08,.09,.16,.14,.24,.05,.08,.1,.16,.15,.25,.05,.08,.1,.17,.16,.26,.05,.09,.11,.17,.17,.26,.06,.09,.12,.17,.18,.26,.06,.09,.13,.17,.19,.26,.07,.09,.13,.18,.2,.27,.07,.09,.14,.18,.21,.27,.07,.09,.14,.18,.22,.27,.07,.09,.15,.18,.23,.27,.08,.09,.15,.18,.23,.27,.08,.09,.16,.18,.24,.26,.33,.35,.68,.7,1.03,1.03,.18,.17,.36,.33,.54,.49,.19,.16,.37,.32,.56,.47,.19,.15,.37,.31,.56,.45,.19,.15,.37,.29,.56,.42,.18,.14,.37,.27,.55,.4,.18,.13,.36,.25,.54,.37,.35,.23,.69,.45,1.01,.64,.32,.19,.61,.36,.87,.51,.22,.12,.41,.23,.58,.32v.04c-.37-.19-.89-.45-1.5-.79-.32-.18-.67-.39-1.03-.61-.18-.11-.36-.23-.55-.35-.19-.12-.38-.25-.57-.38-.19-.13-.39-.27-.58-.41-.19-.14-.39-.29-.58-.43-.2-.15-.38-.3-.58-.46-.19-.16-.38-.32-.57-.48-.37-.33-.74-.66-1.08-1.01-.09-.09-.17-.17-.26-.26-.08-.09-.16-.18-.25-.27-.08-.09-.16-.18-.24-.26-.08-.09-.15-.18-.23-.27-.08-.09-.15-.18-.22-.27-.07-.09-.14-.18-.21-.27-.07-.09-.14-.17-.21-.26-.06-.09-.13-.18-.19-.26-.06-.09-.13-.17-.19-.26-.06-.09-.11-.17-.17-.26-.06-.08-.11-.17-.16-.25-.05-.08-.1-.17-.15-.25-.09-.16-.19-.31-.27-.47-.08-.15-.16-.3-.23-.43-.14-.27-.24-.52-.34-.72-.16-.41-.25-.65-.25-.65l.51-.17s.08,.23,.22,.63Z"/>
      </g>
      <g>
        <path class="cls-1" d="M69.9,58.76c.48,.79,.49,1.9,.85,2.73-.28-.14-.67-.33-1.1-.58-.24-.14-.5-.29-.77-.45-.13-.08-.27-.17-.41-.26-.14-.09-.28-.18-.42-.28-.14-.1-.29-.2-.43-.3-.14-.1-.29-.21-.43-.32-.14-.11-.28-.22-.43-.34-.14-.12-.28-.23-.42-.35-.27-.24-.55-.49-.8-.74-.06-.06-.13-.13-.19-.19-.06-.07-.12-.13-.18-.19-.06-.06-.12-.13-.18-.19-.06-.07-.11-.13-.17-.2-.06-.07-.11-.13-.16-.19-.05-.07-.1-.13-.16-.19-.1-.13-.2-.26-.29-.38-.05-.06-.09-.12-.14-.19-.03-.05-.06-.1-.1-.14,.53,.2,1.22,.23,1.66,.25,.88,.03,1.69,.17,2.48,.63,.72,.43,1.36,1.19,1.78,1.89Z"/>
        <path class="cls-1" d="M63.66,56.18c.04,.06,.09,.12,.13,.19,.05,.06,.1,.12,.15,.19,.1,.13,.2,.26,.31,.38,.05,.06,.11,.13,.17,.19,.06,.07,.12,.13,.17,.19,.06,.06,.12,.13,.18,.19,.06,.06,.12,.13,.19,.19,.06,.06,.13,.13,.19,.19,.07,.06,.13,.12,.2,.19,.27,.25,.55,.49,.83,.73,.14,.12,.29,.23,.44,.34,.15,.11,.29,.22,.44,.33,.15,.11,.3,.21,.44,.31,.15,.1,.3,.2,.44,.29,.15,.09,.29,.18,.43,.27,.14,.08,.28,.17,.42,.25,.28,.16,.54,.3,.78,.43,.46,.24,.86,.42,1.15,.55,0,0,0,0,0,.01-.76-.13-1.39,.42-2.18,.4-.95-.02-1.81-.44-2.51-1.09-.69-.64-1.26-1.47-1.6-2.35-.3-.76-.51-1.66-.86-2.45,.02,.03,.04,.06,.07,.09Z"/>
        <path class="cls-1" d="M63.39,54.15c.06,.15,.13,.32,.22,.52,.05,.1,.1,.2,.15,.32,.05,.11,.12,.22,.18,.34,.03,.06,.06,.12,.1,.18,.04,.06,.07,.12,.11,.18,.04,.06,.08,.13,.12,.19,.04,.06,.08,.13,.13,.19,.04,.06,.09,.13,.13,.2,.04,.07,.09,.13,.14,.2,.05,.07,.1,.13,.15,.2,.05,.07,.1,.13,.16,.2,.05,.07,.11,.13,.16,.2,.06,.07,.11,.13,.17,.2,.06,.07,.12,.13,.17,.2,.06,.07,.12,.13,.18,.2,.24,.26,.5,.52,.77,.77,.13,.12,.27,.25,.41,.37,.14,.12,.27,.24,.42,.35,.14,.11,.28,.23,.42,.34,.14,.11,.28,.21,.42,.32,.14,.1,.28,.2,.41,.3,.14,.09,.27,.19,.4,.27,.26,.18,.51,.34,.75,.48,.24,.14,.45,.27,.65,.38,.16,.09,.31,.17,.43,.24v.03c-.28-.14-.66-.33-1.12-.59-.24-.14-.5-.29-.77-.45-.14-.08-.27-.17-.41-.26-.14-.09-.28-.18-.42-.28-.14-.1-.29-.2-.43-.3-.15-.1-.29-.21-.43-.32-.15-.11-.29-.23-.43-.34-.14-.12-.28-.24-.42-.36-.28-.25-.55-.5-.81-.76-.06-.06-.13-.13-.19-.19-.06-.07-.12-.13-.18-.2-.06-.07-.12-.13-.18-.2-.06-.07-.11-.13-.17-.2-.06-.07-.11-.13-.17-.2-.05-.07-.11-.13-.16-.2-.05-.07-.11-.13-.15-.2-.05-.07-.1-.13-.14-.2-.05-.07-.09-.13-.14-.19-.04-.07-.09-.13-.13-.19-.04-.06-.08-.13-.12-.19-.04-.06-.07-.12-.11-.18-.07-.12-.14-.23-.2-.35-.06-.11-.12-.22-.17-.32-.1-.2-.18-.39-.25-.54-.12-.31-.19-.48-.19-.48l.38-.13s.06,.17,.16,.47Z"/>
      </g>
      <g>
        <path class="cls-1" d="M73.48,52.59c.95-.45,1.66-1.48,2.51-2.03-.35-.05-.83-.11-1.4-.15-.31-.02-.65-.04-1.01-.06-.18,0-.36,0-.55-.01-.19,0-.38,0-.57,0-.19,0-.39,0-.59,.01-.2,0-.4,.02-.61,.03-.2,.01-.41,.03-.61,.05-.21,.02-.41,.04-.62,.07-.41,.05-.82,.12-1.22,.2-.1,.02-.2,.04-.3,.06-.1,.02-.2,.05-.29,.07-.1,.02-.19,.04-.29,.07-.09,.03-.19,.05-.28,.08-.09,.03-.19,.05-.28,.08-.09,.03-.18,.06-.27,.09-.18,.05-.35,.12-.51,.18-.08,.03-.17,.06-.24,.09-.06,.03-.12,.05-.18,.08,.62,.14,1.29,.55,1.72,.81,.85,.52,1.7,.91,2.73,.96,.95,.05,2.03-.26,2.87-.66Z"/>
        <path class="cls-1" d="M65.99,51.09c.08-.03,.16-.06,.24-.09,.08-.03,.17-.06,.25-.08,.17-.06,.35-.12,.53-.16,.09-.03,.18-.05,.28-.08,.09-.03,.19-.05,.29-.07,.1-.02,.19-.05,.29-.07,.1-.02,.2-.04,.3-.06,.1-.02,.2-.04,.3-.06,.1-.02,.2-.03,.3-.05,.41-.07,.82-.12,1.24-.16,.21-.02,.42-.03,.63-.05,.21,0,.42-.02,.62-.03,.21,0,.41-.01,.61,0,.2,0,.4,0,.6,0,.2,0,.39,.01,.58,.02,.19,.01,.37,.02,.55,.03,.36,.03,.7,.06,1.01,.09,.58,.06,1.07,.14,1.42,.2,0,0,0,0,.01,0-.79-.36-1.04-1.27-1.8-1.75-.91-.58-1.98-.72-3.04-.55-1.05,.16-2.11,.59-2.98,1.2-.76,.53-1.53,1.24-2.35,1.76,.04-.01,.08-.03,.12-.04Z"/>
        <path class="cls-1" d="M64.46,52.82c.15-.1,.33-.22,.54-.35,.11-.06,.22-.13,.34-.2,.12-.07,.25-.13,.39-.21,.07-.03,.14-.07,.21-.11,.07-.03,.15-.07,.22-.1,.08-.03,.15-.07,.23-.11,.08-.03,.16-.07,.24-.1,.08-.03,.16-.07,.25-.1,.08-.03,.17-.06,.26-.1,.09-.03,.18-.06,.26-.1,.09-.03,.18-.06,.27-.09,.09-.03,.18-.06,.28-.09,.09-.03,.19-.05,.29-.08,.1-.03,.19-.05,.29-.08,.1-.02,.2-.05,.3-.07,.4-.1,.8-.17,1.21-.24,.2-.03,.41-.06,.61-.09,.2-.02,.41-.05,.61-.07,.2-.02,.4-.04,.6-.05,.2-.02,.4-.03,.59-.03,.19-.01,.39-.01,.57-.02,.19,0,.37,0,.55,0,.36,0,.7,0,1.01,.02,.31,.01,.6,.03,.85,.05,.21,.02,.4,.03,.56,.05l.03-.02c-.36-.05-.85-.11-1.43-.15-.31-.02-.65-.04-1.01-.06-.18,0-.36,0-.55-.01-.19,0-.38,0-.58,0-.2,0-.39,0-.6,.01-.2,0-.41,.02-.61,.03-.21,.01-.41,.03-.62,.05-.21,.02-.42,.04-.62,.07-.42,.06-.83,.12-1.24,.2-.1,.02-.2,.04-.3,.06-.1,.02-.2,.05-.3,.07-.1,.02-.2,.05-.29,.07-.1,.03-.19,.05-.29,.08-.09,.03-.19,.05-.28,.08-.09,.03-.18,.06-.27,.09-.09,.03-.18,.06-.27,.09-.09,.03-.17,.06-.26,.1-.08,.03-.17,.06-.25,.09-.08,.03-.16,.07-.24,.1-.08,.03-.16,.07-.23,.1-.08,.03-.15,.07-.22,.1-.14,.07-.28,.13-.41,.2-.13,.07-.25,.13-.36,.2-.22,.13-.41,.25-.57,.35-.31,.21-.48,.33-.48,.33l.28,.36s.16-.12,.45-.34Z"/>
      </g>
      <path class="cls-1" d="M39,35.25s.15,.12,.42,.33c.28,.24,.65,.48,1.24,1.06,.27,.27,.61,.57,.9,.9,.28,.32,.58,.67,.9,1.04,.61,.75,1.26,1.61,1.91,2.56,1.32,1.88,2.68,4.12,4.29,6.31,.81,1.08,1.68,2.17,2.67,3.09,1,.89,2.11,1.68,3.36,2.04,.31,.09,.63,.11,.95,.17l.24,.04s.11,.02,.09,.02h.14s.56,0,.56,0c.77,.03,1.42-.03,2.15-.07,1.44-.1,2.95-.26,4.43-.11,1.46,.14,2.88,.55,4.04,1.16,1.22,.65,2.17,1.41,3.06,2.1,.88,.69,1.69,1.31,2.48,1.71,.79,.41,1.57,.55,2.21,.54,.32,.01,.61-.03,.86-.08,.25-.03,.46-.09,.62-.15,.33-.11,.51-.16,.51-.16,0,0-.17,.07-.5,.2-.16,.07-.36,.15-.62,.2-.25,.07-.53,.14-.87,.16-.66,.07-1.5-.02-2.37-.38-.87-.35-1.76-.92-2.69-1.54-.93-.61-1.95-1.29-3.05-1.76-1.17-.49-2.43-.73-3.76-.76-1.33-.03-2.71,.23-4.19,.45-.73,.1-1.56,.23-2.28,.26l-.56,.04h-.14c-.12,0-.12,0-.19,0l-.32-.02c-.42-.04-.85-.04-1.26-.13-1.69-.33-3.15-1.21-4.41-2.17-1.26-.98-2.29-2.1-3.26-3.18-1.9-2.19-3.43-4.32-4.83-6-.69-.85-1.35-1.58-1.93-2.2-.3-.3-.58-.57-.84-.83-.26-.24-.48-.4-.68-.58-.35-.34-.86-.64-1.13-.83-.29-.2-.45-.3-.45-.3h-.01c-.89-.61-1.13-1.81-.53-2.71,.6-.89,1.81-1.13,2.7-.53,.04,.03,.09,.06,.13,.09Z"/>
      <path class="cls-1" d="M153.56,35.29c1.22-.26,2.47-.61,3.69-1.01,.61-.2,1.21-.41,1.81-.65,.59-.24,1.19-.47,1.75-.75,.58-.26,1.13-.56,1.68-.87,.28-.15,.52-.33,.79-.5,.27-.16,.51-.35,.75-.54,.24-.19,.5-.37,.69-.59,.2-.22,.45-.41,.62-.64,.17-.24,.36-.46,.52-.7l.38-.76,.22-.44,.35-.04,18.61-1.96-18.41,3.35,.57-.48-.42,1.04c-.17,.33-.39,.62-.58,.94-.2,.31-.46,.55-.69,.84-.23,.29-.5,.51-.76,.75-.26,.24-.52,.48-.8,.68-.28,.21-.55,.43-.84,.62-.57,.38-1.16,.76-1.76,1.09-.59,.35-1.21,.65-1.82,.95-.61,.3-1.24,.57-1.86,.83-1.26,.52-2.52,.98-3.85,1.37-.69,.2-1.41-.19-1.61-.88-.2-.69,.19-1.41,.88-1.61,.03,0,.06-.02,.09-.02h.01Z"/>
      <path class="cls-1" d="M152.41,36.04l8.82,4.24,.26,.13,.09,.18,5.3,10.81-6.54-10.1,.35,.31-9.26-3.16c-.68-.23-1.04-.97-.81-1.65,.23-.68,.97-1.04,1.65-.81,.05,.02,.1,.04,.14,.06Z"/>
    </g>
  </g>
</svg>