<?xml version="1.0" encoding="UTF-8"?>
<svg id="_图层_2" data-name="图层 2" xmlns="http://www.w3.org/2000/svg" viewBox="0 0 168.41 86.35">
  <defs>
    <style>
      .cls-1 {
        fill: #4a4a4a;
      }
    </style>
  </defs>
  <g id="Layer_1" data-name="Layer 1">
    <g>
      <g>
        <path class="cls-1" d="M80.9,12.05c.87-2.5,1.07-6.13,2.45-8.52,1.8-3.15,4.87-1.72,7.42-3.52-.24,1.76,.87,2.57,1.12,4.14,.24,1.56-.68,2.91-1.84,3.86-2.36,1.94-7.61,1.45-9.15,4.04h0Z"/>
        <path class="cls-1" d="M91.43,12.07h0c-.19-.25-.39-.49-.63-.69-.28-.24-.56-.44-.84-.61h0c-3.37-2.52-9.24,1.11-9.24,1.11l1.65,1.78c.94,1.01,1.89,1.77,3.12,2.41,1.48,.76,2.83,.93,4.23-.11,1.09-.82,1.96-1.91,3.33-2.23-.74-.34-1.15-1.02-1.62-1.64Z"/>
        <path class="cls-1" d="M78.16,1.53h0s0,0,0,0c.29,.13,.57,.27,.81,.45,.29,.22,.56,.44,.79,.68h0c3.22,2.71,1.02,9.25,1.02,9.25l-2.11-1.21c-1.2-.69-2.16-1.44-3.05-2.49-1.08-1.27-1.55-2.55-.85-4.14,.55-1.25,1.41-2.35,1.42-3.75,.5,.64,1.26,.88,1.97,1.2Z"/>
        <path class="cls-1" d="M75.67,13.66c.45,.3,1.16,.48,1.7,.35,.2-.05,.39-.11,.58-.19,1.05-.4,2.01-1.05,2.74-1.91-1.35-.23-2.19-1.6-3.55-1.8-.74-.11-1.33,.21-1.77,.79-.42,.54-.72,1.23-1.32,1.6,.69,.11,1.09,.78,1.63,1.15,.51,.34-.53-.36,0,0Z"/>
        <path class="cls-1" d="M80.19,17.24c-.4-.37-.73-1.02-.73-1.58,0-.2,.02-.41,.05-.61,.15-1.11,.57-2.2,1.24-3.1,.53,1.26,2.05,1.77,2.56,3.05,.27,.7,.09,1.34-.37,1.91-.43,.53-1.03,.98-1.26,1.65-.26-.65-1.01-.88-1.49-1.32-.45-.41,.47,.43,0,0Z"/>
        <path class="cls-1" d="M81.51,10.85s-3.83,3.72-5.42,8.02l.72,.51s.8-3.64,4.83-8.37l-.13-.16Z"/>
      </g>
      <g>
        <path class="cls-1" d="M107.2,71.73c1.71,2.02,4.73,4.04,6.1,6.44,1.79,3.15-.99,5.06-.74,8.18-1.4-1.1-2.65-.55-4.14-1.14-1.47-.58-2.16-2.06-2.39-3.55-.47-3.02,2.62-7.29,1.17-9.93h0Z"/>
        <path class="cls-1" d="M101.82,80.8h0c.31-.04,.62-.09,.91-.19,.34-.12,.66-.25,.96-.41h0c3.89-1.62,3.74-8.52,3.74-8.52l-2.37,.52c-1.35,.3-2.49,.72-3.66,1.46-1.41,.89-2.24,1.97-2.05,3.7,.15,1.36,.65,2.66,.23,4,.67-.46,1.46-.47,2.24-.56Z"/>
        <path class="cls-1" d="M117.64,74.72h0c-.26,.18-.52,.35-.8,.47-.34,.14-.66,.25-.99,.33h0c-3.97,1.4-8.49-3.82-8.49-3.82l2.11-1.2c1.2-.68,2.33-1.13,3.7-1.36,1.64-.28,2.98-.04,4,1.37,.8,1.11,1.3,2.41,2.51,3.13-.81,.1-1.4,.63-2.03,1.08Z"/>
        <path class="cls-1" d="M108.46,66.41c-.49,.23-1,.76-1.17,1.29-.06,.19-.1,.39-.13,.59-.19,1.11-.11,2.27,.26,3.33,.89-1.05,2.49-1.08,3.35-2.15,.47-.59,.49-1.25,.22-1.93-.26-.63-.69-1.24-.71-1.95-.44,.54-1.23,.54-1.82,.82-.55,.26,.58-.27,0,0Z"/>
        <path class="cls-1" d="M103.08,68.48c.52-.16,1.25-.11,1.73,.17,.17,.1,.34,.23,.5,.35,.88,.7,1.6,1.61,2.04,2.65-1.36-.18-2.57,.87-3.93,.65-.74-.12-1.21-.6-1.46-1.29-.23-.64-.32-1.39-.78-1.92,.69,.11,1.27-.42,1.9-.61,.59-.18-.61,.19,0,0Z"/>
        <path class="cls-1" d="M107.91,72.87s-1.26-5.19-4.15-8.74l-.81,.36s2.73,2.54,4.76,8.41l.2-.03Z"/>
      </g>
      <g>
        <path class="cls-1" d="M92.72,22.35c1.72,.63,4.23,.8,5.87,1.78,2.16,1.28,1.14,3.38,2.36,5.17-1.22-.18-1.78,.58-2.88,.73-1.08,.15-2-.5-2.65-1.31-1.32-1.65-.93-5.28-2.71-6.37h0Z"/>
        <path class="cls-1" d="M92.6,29.65h0c.17-.13,.34-.26,.48-.43,.17-.19,.31-.38,.43-.58h0c1.78-2.31-.67-6.41-.67-6.41l-1.25,1.13c-.71,.64-1.25,1.29-1.7,2.14-.54,1.02-.67,1.95,.04,2.93,.56,.76,1.3,1.38,1.51,2.33,.24-.51,.72-.78,1.15-1.1Z"/>
        <path class="cls-1" d="M100.02,20.56h0c-.09,.2-.19,.39-.32,.56-.15,.2-.31,.38-.48,.54h0c-1.91,2.2-6.42,.61-6.42,.61l.86-1.45c.49-.82,1.01-1.48,1.75-2.09,.89-.74,1.78-1.05,2.87-.55,.86,.39,1.61,1,2.58,1.02-.45,.34-.62,.86-.85,1.35Z"/>
        <path class="cls-1" d="M91.65,18.72c-.22,.31-.34,.8-.26,1.17,.03,.14,.07,.27,.12,.4,.27,.73,.71,1.4,1.3,1.91,.17-.93,1.13-1.5,1.28-2.44,.08-.51-.13-.92-.53-1.24-.37-.29-.84-.51-1.1-.93-.08,.48-.55,.74-.81,1.12-.24,.35,.25-.36,0,0Z"/>
        <path class="cls-1" d="M89.13,21.81c.26-.27,.71-.49,1.1-.49,.14,0,.28,.02,.42,.04,.77,.12,1.52,.42,2.13,.89-.88,.36-1.25,1.4-2.14,1.74-.49,.18-.93,.05-1.32-.27-.36-.31-.67-.72-1.13-.89,.45-.17,.62-.69,.93-1.02,.29-.31-.3,.32,0,0Z"/>
        <path class="cls-1" d="M93.54,22.79s-2.54-2.69-5.49-3.83l-.36,.49s2.51,.59,5.75,3.42l.11-.09Z"/>
      </g>
      <g>
        <path class="cls-1" d="M142.72,27.5c.27-1.81-.07-4.31,.55-6.11,.81-2.37,3.08-1.8,4.58-3.36,.07,1.23,.93,1.63,1.3,2.67,.37,1.03-.08,2.06-.75,2.86-1.35,1.63-4.98,1.98-5.69,3.94h0Z"/>
        <path class="cls-1" d="M149.89,26.14h0c-.16-.15-.33-.28-.52-.39-.22-.12-.44-.23-.65-.31h0c-2.62-1.28-6.14,1.96-6.14,1.96l1.36,.99c.77,.56,1.51,.96,2.44,1.23,1.11,.33,2.05,.27,2.86-.63,.63-.7,1.09-1.56,1.97-1.95-.55-.13-.91-.55-1.31-.91Z"/>
        <path class="cls-1" d="M139.49,20.71h0c.21,.05,.42,.11,.61,.2,.23,.11,.44,.23,.63,.36h0c2.55,1.42,1.9,6.16,1.9,6.16l-1.59-.55c-.9-.31-1.65-.69-2.4-1.3-.9-.72-1.39-1.53-1.12-2.7,.21-.92,.65-1.78,.48-2.73,.42,.37,.97,.44,1.49,.56Z"/>
        <path class="cls-1" d="M139.38,29.28c.34,.15,.85,.17,1.2,.02,.13-.06,.25-.13,.37-.2,.66-.41,1.23-.98,1.61-1.66-.95,.02-1.7-.8-2.65-.76-.52,.02-.88,.32-1.1,.77-.21,.42-.33,.93-.69,1.26,.48-.02,.84,.39,1.26,.57,.39,.17-.41-.18,0,0Z"/>
        <path class="cls-1" d="M142.92,31.13c-.32-.2-.63-.6-.7-.98-.03-.14-.04-.28-.05-.42-.04-.78,.1-1.57,.44-2.27,.53,.79,1.63,.94,2.14,1.74,.28,.44,.24,.9,0,1.35-.23,.42-.57,.8-.64,1.28-.26-.41-.8-.47-1.19-.71-.36-.22,.38,.23,0,0Z"/>
        <path class="cls-1" d="M142.98,26.61s-2.12,3.03-2.64,6.16l.56,.25s.07-2.58,2.19-6.32l-.11-.09Z"/>
      </g>
      <g>
        <path class="cls-1" d="M139.93,39.48c1.83-.04,4.23-.8,6.12-.5,2.48,.4,2.3,2.73,4.09,3.95-1.2,.28-1.45,1.19-2.41,1.74-.95,.54-2.05,.27-2.95-.25-1.83-1.06-2.79-4.57-4.85-4.94h0Z"/>
        <path class="cls-1" d="M142.49,46.31h0c.12-.18,.22-.37,.29-.57,.09-.24,.15-.47,.19-.7h0c.81-2.8-2.97-5.72-2.97-5.72l-.75,1.51c-.42,.86-.69,1.66-.8,2.61-.13,1.15,.09,2.06,1.1,2.71,.8,.51,1.72,.81,2.26,1.61,.04-.56,.38-.99,.67-1.45Z"/>
        <path class="cls-1" d="M146.07,35.14h0c-.01,.22-.04,.43-.09,.64-.07,.24-.15,.47-.25,.68h0c-.97,2.75-5.75,2.92-5.75,2.92l.27-1.66c.15-.94,.4-1.75,.87-2.59,.56-1.01,1.27-1.63,2.47-1.56,.94,.05,1.87,.34,2.77,0-.29,.48-.27,1.03-.3,1.57Z"/>
        <path class="cls-1" d="M137.61,36.49c-.09,.36-.03,.87,.19,1.19,.08,.12,.17,.23,.26,.33,.52,.58,1.17,1.05,1.91,1.31-.18-.93,.5-1.81,.3-2.74-.11-.51-.46-.81-.95-.96-.45-.14-.97-.17-1.36-.46,.1,.47-.24,.89-.35,1.34-.1,.41,.1-.43,0,0Z"/>
        <path class="cls-1" d="M136.39,40.29c.14-.35,.48-.72,.84-.86,.13-.05,.27-.08,.41-.12,.76-.17,1.56-.17,2.31,.05-.69,.65-.65,1.76-1.35,2.4-.39,.35-.85,.39-1.33,.23-.45-.15-.89-.43-1.37-.41,.36-.33,.32-.87,.49-1.29,.16-.39-.17,.41,0,0Z"/>
        <path class="cls-1" d="M140.85,39.58s-3.35-1.57-6.52-1.55l-.16,.59s2.55-.37,6.6,1.08l.07-.12Z"/>
      </g>
      <g>
        <path class="cls-1" d="M110.48,52.42c1.51,1.04,3.89,1.85,5.23,3.21,1.77,1.78,.25,3.56,.98,5.6-1.13-.48-1.87,.11-2.97-.02-1.09-.12-1.81-.99-2.24-1.94-.86-1.93,.44-5.34-1.01-6.85h0Z"/>
        <path class="cls-1" d="M108.51,59.44h0c.2-.08,.4-.17,.58-.29,.21-.14,.4-.29,.56-.45h0c2.31-1.78,.97-6.37,.97-6.37l-1.49,.78c-.85,.44-1.53,.93-2.18,1.64-.78,.85-1.15,1.72-.7,2.84,.35,.88,.91,1.66,.88,2.63,.36-.43,.89-.58,1.39-.77Z"/>
        <path class="cls-1" d="M117.99,52.53h0c-.14,.17-.28,.33-.45,.46-.2,.16-.4,.29-.6,.4h0c-2.4,1.65-6.36-1.03-6.36-1.03l1.19-1.18c.68-.67,1.36-1.17,2.23-1.58,1.05-.49,1.99-.57,2.92,.2,.73,.6,1.3,1.38,2.24,1.64-.52,.21-.82,.68-1.16,1.09Z"/>
        <path class="cls-1" d="M110.36,48.63c-.29,.24-.53,.69-.55,1.07,0,.14,0,.28,.02,.42,.07,.77,.33,1.54,.77,2.18,.4-.86,1.47-1.17,1.85-2.04,.21-.48,.1-.93-.2-1.33-.29-.38-.68-.71-.82-1.18-.2,.44-.72,.58-1.07,.87-.32,.27,.34-.29,0,0Z"/>
        <path class="cls-1" d="M107.14,50.98c.32-.2,.82-.3,1.19-.19,.14,.04,.27,.09,.4,.15,.71,.31,1.36,.79,1.84,1.4-.94,.12-1.56,1.04-2.51,1.14-.52,.05-.91-.19-1.2-.6-.27-.39-.46-.87-.87-1.14,.48-.05,.77-.51,1.16-.75,.36-.22-.37,.23,0,0Z"/>
        <path class="cls-1" d="M111.16,53.04s-1.78-3.24-4.35-5.09l-.47,.39s2.28,1.21,4.7,4.77l.13-.06Z"/>
      </g>
      <g>
        <path class="cls-1" d="M139.75,55.73c1.69,.72,4.18,1.04,5.77,2.1,2.08,1.4,.95,3.44,2.08,5.29-1.21-.25-1.81,.48-2.91,.57-1.09,.09-1.97-.61-2.58-1.46-1.22-1.72-.63-5.32-2.35-6.51h0Z"/>
        <path class="cls-1" d="M139.22,63h0c.18-.12,.36-.25,.51-.4,.18-.18,.33-.36,.46-.55h0c1.91-2.21-.32-6.44-.32-6.44l-1.31,1.06c-.74,.6-1.32,1.22-1.81,2.04-.6,.99-.78,1.91-.13,2.92,.51,.79,1.22,1.45,1.38,2.41,.27-.49,.76-.74,1.21-1.04Z"/>
        <path class="cls-1" d="M147.14,54.34h0s0,0,0,0c-.1,.19-.21,.38-.35,.54-.16,.19-.33,.36-.51,.51h0c-2.03,2.1-6.44,.26-6.44,.26l.94-1.4c.53-.79,1.1-1.42,1.87-1.99,.93-.69,1.83-.95,2.9-.39,.84,.44,1.55,1.09,2.52,1.16-.47,.31-.67,.83-.92,1.3Z"/>
        <path class="cls-1" d="M138.88,52.04c-.23,.29-.39,.78-.32,1.16,.02,.14,.06,.28,.1,.41,.23,.74,.63,1.44,1.19,1.98,.23-.92,1.21-1.44,1.41-2.37,.11-.51-.08-.93-.46-1.26-.35-.31-.81-.56-1.04-.99-.11,.47-.59,.71-.87,1.07-.26,.33,.27-.35,0,0Z"/>
        <path class="cls-1" d="M136.19,54.99c.27-.26,.74-.45,1.12-.43,.14,0,.28,.03,.42,.06,.76,.16,1.49,.5,2.08,1.01-.9,.31-1.32,1.33-2.23,1.62-.5,.16-.93,0-1.3-.35-.34-.33-.63-.76-1.08-.95,.46-.15,.66-.65,.99-.96,.31-.29-.32,.3,0,0Z"/>
        <path class="cls-1" d="M140.54,56.21s-2.39-2.82-5.28-4.13l-.39,.47s2.48,.73,5.55,3.74l.11-.08Z"/>
      </g>
      <g>
        <path class="cls-1" d="M91.57,63.3c.14,1.83,1.03,4.18,.83,6.08-.26,2.49-2.6,2.45-3.72,4.3-.34-1.18-1.27-1.38-1.86-2.31-.59-.92-.38-2.03,.09-2.96,.95-1.89,4.42-3.04,4.67-5.11h0Z"/>
        <path class="cls-1" d="M84.89,66.22h0c.19,.11,.38,.2,.59,.26,.24,.07,.47,.12,.7,.15h0c2.84,.66,5.55-3.28,5.55-3.28l-1.54-.67c-.88-.38-1.69-.6-2.65-.66-1.15-.07-2.06,.2-2.65,1.25-.46,.82-.71,1.76-1.49,2.34,.56,0,1.01,.33,1.48,.59Z"/>
        <path class="cls-1" d="M96.24,69.19h0c-.22,0-.43-.01-.64-.06-.25-.06-.47-.12-.69-.21h0c-2.8-.82-3.23-5.58-3.23-5.58l1.67,.18c.95,.1,1.77,.31,2.63,.73,1.04,.5,1.69,1.18,1.69,2.39,0,.94-.24,1.88,.15,2.77-.49-.27-1.04-.21-1.58-.21Z"/>
        <path class="cls-1" d="M94.43,60.81c-.37-.07-.87,.02-1.17,.25-.11,.08-.22,.18-.32,.28-.55,.55-.98,1.23-1.2,1.98,.92-.23,1.83,.4,2.75,.15,.5-.14,.78-.51,.9-1,.11-.46,.12-.98,.39-1.38-.47,.13-.91-.19-1.35-.27-.42-.08,.43,.08,0,0Z"/>
        <path class="cls-1" d="M90.57,59.8c.35,.12,.75,.44,.9,.79,.06,.13,.1,.26,.14,.4,.21,.75,.25,1.55,.08,2.31-.69-.65-1.79-.55-2.47-1.22-.37-.37-.43-.83-.3-1.31,.13-.46,.38-.91,.34-1.4,.35,.34,.88,.28,1.31,.42,.4,.14-.42-.14,0,0Z"/>
        <path class="cls-1" d="M91.52,64.22s1.39-3.43,1.2-6.59l-.6-.12s.51,2.53-.72,6.65l.12,.06Z"/>
      </g>
      <g>
        <path class="cls-1" d="M70.44,25.28c2.18,.8,5.35,1.02,7.44,2.25,2.73,1.62,1.44,4.28,2.99,6.55-1.54-.23-2.26,.73-3.64,.93-1.37,.19-2.54-.63-3.36-1.66-1.67-2.09-1.17-6.68-3.43-8.07h0Z"/>
        <path class="cls-1" d="M70.29,34.51h0c.22-.16,.43-.34,.61-.54,.21-.24,.39-.48,.55-.73h0c2.25-2.92-.85-8.11-.85-8.11l-1.58,1.43c-.9,.81-1.58,1.63-2.15,2.7-.69,1.29-.85,2.47,.05,3.7,.71,.97,1.65,1.75,1.92,2.94,.31-.64,.91-.99,1.46-1.4Z"/>
        <path class="cls-1" d="M79.69,23.01h0c-.12,.25-.24,.49-.41,.71-.19,.25-.39,.48-.61,.68h0c-2.42,2.79-8.12,.78-8.12,.78l1.08-1.83c.62-1.04,1.28-1.87,2.22-2.64,1.13-.93,2.25-1.33,3.64-.69,1.09,.5,2.04,1.27,3.27,1.29-.57,.43-.79,1.09-1.08,1.71Z"/>
        <path class="cls-1" d="M69.09,20.68c-.27,.39-.43,1.01-.33,1.48,.04,.17,.09,.34,.16,.51,.34,.92,.9,1.78,1.64,2.42,.22-1.18,1.43-1.9,1.62-3.09,.1-.65-.17-1.17-.67-1.56-.47-.37-1.06-.65-1.39-1.17-.1,.6-.7,.94-1.03,1.41-.31,.44,.32-.46,0,0Z"/>
        <path class="cls-1" d="M65.9,24.59c.33-.34,.9-.62,1.39-.62,.18,0,.36,.02,.53,.05,.97,.15,1.92,.53,2.7,1.13-1.11,.45-1.58,1.78-2.71,2.2-.62,.23-1.18,.07-1.67-.35-.46-.39-.85-.91-1.43-1.12,.57-.22,.78-.87,1.18-1.29,.37-.39-.38,.41,0,0Z"/>
        <path class="cls-1" d="M71.48,25.83s-3.21-3.4-6.96-4.85l-.46,.62s3.18,.75,7.28,4.33l.14-.11Z"/>
      </g>
      <path class="cls-1" d="M0,43.79s.55-.4,1.58-1.15c.52-.37,1.15-.83,1.9-1.38,.37-.27,.78-.56,1.2-.87,.43-.31,1.02-.63,1.58-.97,1.14-.67,2.4-1.41,3.77-2.22,1.39-.73,2.92-1.36,4.53-2.12,3.27-1.4,7.11-2.63,11.36-3.52,1.05-.29,2.16-.36,3.27-.55,1.12-.15,2.25-.34,3.4-.45,1.16-.07,2.33-.13,3.53-.2,.6-.03,1.2-.06,1.8-.1,.6,.01,1.21,.02,1.82,.03,1.22,.02,2.46,.05,3.71,.07,1.24,.1,2.49,.21,3.76,.31,.63,.06,1.27,.11,1.91,.17,.63,.09,1.27,.18,1.91,.27,1.27,.19,2.57,.34,3.86,.56,5.15,.91,10.37,2.11,15.59,3.53,5.21,1.44,10.45,3.02,15.63,4.67,5.19,1.63,10.35,3.3,15.46,4.79,2.55,.78,5.09,1.44,7.6,2.14,2.52,.61,5.01,1.28,7.48,1.76,2.46,.57,4.9,.94,7.3,1.33,1.2,.21,2.39,.29,3.56,.43,1.18,.13,2.34,.29,3.49,.31,1.15,.05,2.29,.11,3.4,.16,1.12,.03,2.22-.04,3.3-.06,2.18,.02,4.24-.31,6.25-.51,1.01-.07,1.96-.35,2.9-.52,.94-.19,1.87-.38,2.77-.57,1.75-.55,3.42-1.05,4.98-1.58,1.51-.65,2.92-1.27,4.22-1.83,1.28-.63,2.38-1.33,3.42-1.9,.52-.29,1-.57,1.46-.83,.45-.28,.83-.59,1.21-.85,.75-.54,1.38-1,1.9-1.37,1.03-.74,1.59-1.14,1.59-1.14,0,0-.53,.42-1.52,1.22-.5,.4-1.11,.89-1.83,1.47-.37,.28-.74,.61-1.17,.92-.45,.29-.92,.59-1.42,.91-1.01,.63-2.1,1.39-3.36,2.1-1.29,.64-2.69,1.34-4.18,2.08-1.55,.61-3.23,1.21-4.99,1.87-.91,.24-1.84,.48-2.79,.73-.96,.23-1.92,.56-2.95,.69-2.04,.31-4.15,.76-6.38,.86-1.11,.07-2.24,.21-3.39,.23-1.15,0-2.32,.01-3.5,.02-1.19,.04-2.38-.06-3.59-.13-1.21-.09-2.44-.1-3.67-.25-2.46-.27-4.99-.53-7.52-.97-2.55-.36-5.1-.91-7.71-1.4-2.57-.57-5.2-1.11-7.8-1.76-5.24-1.24-10.5-2.64-15.75-3.99-5.25-1.37-10.5-2.66-15.66-3.81-5.17-1.12-10.26-2.01-15.19-2.62-1.23-.14-2.45-.22-3.66-.34-.6-.05-1.2-.11-1.8-.16-.6-.02-1.19-.04-1.78-.06-1.18-.04-2.34-.07-3.5-.11-1.14,.04-2.27,.08-3.39,.12-.56,.02-1.11,.04-1.66,.05-.54,.06-1.08,.12-1.62,.18-1.07,.12-2.12,.23-3.15,.34-1.02,.16-2.01,.38-2.99,.57-.97,.21-1.95,.32-2.85,.63-3.68,.98-6.92,2.21-9.67,3.56-1.34,.72-2.66,1.34-3.77,2-1.06,.7-2.04,1.34-2.92,1.92-.45,.3-.85,.52-1.26,.85-.41,.33-.8,.64-1.16,.93-.72,.58-1.33,1.07-1.83,1.47-.99,.8-1.52,1.23-1.52,1.23L0,43.79Z"/>
      <path class="cls-1" d="M48.55,31.26s.1-.22,.3-.63c.19-.39,.6-1.21,1.09-1.98,1.01-1.62,2.68-3.79,5.14-5.78,2.44-2,5.64-3.87,9.35-5,1.86-.57,3.84-.95,5.9-1.05,1.03-.04,2.07-.01,3.11,.12,1.08,.13,2,.36,2.95,.54,1.88,.37,3.72,.67,5.58,.86,1.85,.21,3.68,.26,5.45,.21,3.54-.1,6.82-.84,9.57-1.67,2.75-.84,5-1.74,6.56-2.36,1.56-.65,2.45-1.02,2.45-1.02,0,0-.86,.45-2.36,1.23-1.51,.76-3.67,1.85-6.39,2.93-1.35,.55-2.86,1.07-4.48,1.52-1.63,.43-3.38,.83-5.22,1.03-1.84,.21-3.76,.32-5.7,.26-1.93-.03-3.93-.19-5.86-.4-.96-.1-1.95-.25-2.78-.28-.87-.03-1.75,.01-2.62,.12-1.73,.23-3.42,.7-4.98,1.33-3.13,1.25-5.74,3.09-7.62,4.92-1.91,1.83-3.07,3.66-3.73,4.97-.35,.7-.5,1.08-.68,1.52-.16,.42-.24,.65-.24,.65l-4.77-2.02Z"/>
      <path class="cls-1" d="M81.53,38.4s.21,.12,.61,.34c.41,.25,.94,.45,1.83,1.16,.9,.63,1.72,1.47,2.58,2.48,.82,1.04,1.63,2.27,2.33,3.65,.73,1.37,1.34,2.88,1.99,4.44,.64,1.55,1.27,3.19,2.05,4.76,.79,1.56,1.66,3.13,2.87,4.41,.28,.35,.64,.6,.95,.91,.17,.14,.32,.31,.5,.44l.55,.36,.55,.37,.14,.09,.07,.05,.03,.02c.07,.04-.08-.04-.06-.02h.02s.33,.16,.33,.16l1.34,.6c1.64,.55,3.5,.86,5.39,.95,1.89,.12,3.79,.11,5.65,.28,.46,.02,.92,.08,1.38,.16,.47,.07,.87,.12,1.39,.22,.85,.26,1.68,.41,2.49,.74,1.64,.65,3.04,1.44,4.26,2.29,1.23,.82,2.27,1.68,3.2,2.42,.92,.75,1.74,1.39,2.41,1.91,.66,.54,1.24,.88,1.61,1.16,.38,.26,.58,.4,.58,.4,0,0-.21-.13-.6-.36-.38-.25-.98-.56-1.68-1.06-.71-.48-1.56-1.07-2.53-1.76-.98-.68-2.06-1.46-3.31-2.19-1.23-.76-2.66-1.43-4.17-1.93-.76-.26-1.65-.38-2.49-.58-.42-.04-.84-.07-1.26-.11-.43-.05-.87-.07-1.33-.07-1.79-.06-3.68,.07-5.63,.07-1.95,.02-3.99-.15-6.09-.74l-1.37-.51-.34-.13h-.02s-.1-.05-.1-.05l-.04-.02-.09-.05-.17-.1-.69-.4-.69-.4c-.22-.14-.42-.32-.63-.48-.4-.34-.85-.63-1.2-1.01-1.53-1.44-2.61-3.15-3.58-4.79-.95-1.66-1.69-3.29-2.43-4.79-.73-1.49-1.4-2.9-2.13-4.06-.7-1.2-1.44-2.16-2.14-2.95-.73-.75-1.41-1.35-1.94-1.67-.43-.38-1.18-.67-1.56-.87-.41-.2-.63-.3-.63-.3l1.79-3.45Z"/>
      <path class="cls-1" d="M121.07,49.45s.16-.01,.45-.04c.34-.02,.64-.07,1.09-.17,.93-.21,2.23-.71,3.55-1.84,1.33-1.11,2.64-2.82,3.93-4.79,1.31-1.96,2.61-4.19,4.35-6.17,.88-.99,1.85-1.87,3.03-2.58,.53-.29,1.16-.57,1.78-.76,.6-.2,1.21-.34,1.8-.47,2.38-.47,4.61-.6,6.52-.64,3.82-.08,6.35,.28,6.35,.28,0,0-2.54-.2-6.33,.12-1.89,.16-4.09,.43-6.35,1.03-.56,.16-1.12,.34-1.67,.55-.54,.21-1.03,.46-1.58,.8-.92,.64-1.82,1.52-2.55,2.49-1.5,1.94-2.64,4.19-3.84,6.27-1.19,2.08-2.47,4.04-3.97,5.48-1.48,1.46-3.17,2.27-4.38,2.62-.62,.18-1.18,.29-1.43,.32-.29,.04-.45,.07-.45,.07l-.31-2.57Z"/>
    </g>
  </g>
</svg>